<?xml version="1.0" encoding="utf-8"?>
<!-- Generator: Adobe Illustrator 27.9.0, SVG Export Plug-In . SVG Version: 6.00 Build 0)  -->
<svg version="1.1" id="Layer_1" xmlns="http://www.w3.org/2000/svg" xmlns:xlink="http://www.w3.org/1999/xlink" x="0px" y="0px"
	 viewBox="0 0 52 52" style="enable-background:new 0 0 52 52;" xml:space="preserve">
<style type="text/css">
	.st0{clip-path:url(#SVGID_00000181066864104203813950000004599817172592812477_);}
	.st1{fill-rule:evenodd;clip-rule:evenodd;}
</style>
<g>
	<defs>
		<rect id="SVGID_1_" y="3" width="52" height="46.7"/>
	</defs>
	<clipPath id="SVGID_00000121269892360307784200000006939298130188777613_">
		<use xlink:href="#SVGID_1_"  style="overflow:visible;"/>
	</clipPath>
	<g style="clip-path:url(#SVGID_00000121269892360307784200000006939298130188777613_);">
		<path class="st1" d="M8.6,40.3c0.4-0.9,0.3-1.3-0.5-1.9c-4.4-3-6.9-7.6-7.8-14.1c-0.3-2.1-0.2-4.3,0.1-6.4
			c0.8-5.2,4.1-9,10.1-11.7C15.6,4.1,20.9,3,27.2,3c0,0,0,0,0,0c5.1,0.1,10.6,1.6,15.5,4.2c4.8,2.5,7.6,6.5,9,12.9
			C53.1,27,50,33.7,43,38.3c-4.5,3-9.9,4.5-16.9,4.5c0,0-0.1,0-0.1,0c-0.1,0-0.2,0-0.4,0c-2.9-0.6-5.3,0.7-7.8,2.1l0,0l0,0
			c-2.1,1.1-4.3,2.2-6.3,3.3c-0.7,0.4-1.5,0.7-2.2,1.1l-0.1,0c-0.2,0.1-0.4,0.2-0.7,0.2c0,0-0.1,0-0.1,0c-0.2,0-0.4,0-0.6-0.1
			c-0.7-0.1-1.4-0.1-1.8-0.5c-0.5-0.5-0.5-1.7-0.2-2.3C6.7,44.4,7.7,42.2,8.6,40.3z M10.3,43.6L10.3,43.6L10.3,43.6
			c-0.2,0.5-0.3,1.1-0.5,1.7l1.9-1.1c2.5-1.4,5-2.8,7.4-4.2l0,0h0l0,0c0.4-0.2,0.9-0.5,1.4-0.4c3.6,0.6,7.2,0.3,10.2-0.2
			c6-0.9,10.2-2.8,13.4-6c3.5-3.7,4.8-7.5,4.1-12.2c-0.9-5.7-3.7-9.3-8.7-11.6c-4.3-2-9-3-13.7-3c-4.7,0-9.6,1.1-14.4,3.2
			c-3.5,1.5-5.6,3.5-6.7,6.1c-1.9,4.8-1.6,9.6,1.1,14.8c1,2,2.7,3.4,4.4,4.6c1.1,0.8,2.2,2,1.5,4.1C11.1,40.7,10.7,42.1,10.3,43.6z"
			/>
	</g>
</g>
<g>
	<path d="M16.5,20.5c-0.3-0.4-0.4-0.8-0.5-1.1c-0.1-0.3,0-0.7,0.2-1.1c0.3-0.5,0.8-0.8,1.2-0.7c0.5,0.1,1,0.4,1.6,0.9
		c0.4,0.4,0.6,0.7,0.6,0.9c0.1,0.2,0,0.5,0,1c-0.3,0.8-0.7,1.3-1.3,1.3C17.8,21.7,17.2,21.3,16.5,20.5z M24,21.3
		c-0.3-0.4-0.4-0.8-0.5-1.1c-0.1-0.3,0-0.7,0.2-1.1c0.3-0.5,0.8-0.8,1.2-0.7c0.5,0.1,1,0.4,1.6,0.9c0.4,0.4,0.6,0.7,0.6,0.9
		c0.1,0.2,0,0.5,0,1c-0.3,0.8-0.7,1.3-1.3,1.3C25.2,22.5,24.6,22.2,24,21.3z"/>
	<path d="M11.1,25.4c0-0.4,0.2-0.9,0.4-1.4c0.3-0.5,0.6-0.8,0.9-0.9c0.1,0,0.2,0,0.4-0.1c0.2,0,0.4,0,0.6,0c-0.1,0.3,0,0.6,0.1,1
		c0.1,0.4,0.2,0.8,0.3,1c0.2,0.2,0.5,0.4,0.9,0.7c0.4,0.2,0.8,0.4,1.2,0.6c0.4,0.2,0.8,0.4,1.1,0.4c0.3,0.3,0.6,0.5,0.8,0.6
		c0.2,0.1,0.5,0.2,0.7,0.3c0.1,0,0.3,0,0.6,0c0.3,0,0.7,0.1,1.2,0.3c0.6,0.1,1.1,0.3,1.6,0.4c0.4,0.1,0.7,0.2,0.8,0.2
		c0.3,0.1,0.6,0.1,0.8,0c0.1,0.1,0.3,0.2,0.5,0.3c0.3,0,0.5,0,0.7,0c0.1,0,0.3,0,0.8,0.1s1,0.1,1.4,0c0.8,0.1,1.6,0.1,2.2,0.1
		c0.7,0,1.4-0.1,2.1-0.2c0.8-0.1,1.7-0.2,2.9-0.4c1-0.2,1.8-0.3,2.3-0.4c0.5-0.1,0.9-0.2,1.1-0.3c0.3-0.1,0.5-0.3,0.7-0.5
		c0.7-0.4,1-0.6,0.9-0.8c0-0.1,0.1-0.1,0.4-0.3c0.3-0.1,0.5-0.1,0.9-0.1c0.1,0,0.2,0.1,0.4,0.4c0.2,0.3,0.3,0.6,0.3,0.8
		c0,0.2,0,0.3-0.1,0.6c-0.1,0.2-0.2,0.4-0.2,0.4c0.1,0.1,0,0.2-0.3,0.5c-0.3,0.3-0.8,0.6-1.4,0.9c-0.3,0.2-0.5,0.4-0.7,0.5
		c-0.2,0.1-0.4,0.2-0.7,0.3c-0.2,0.1-0.6,0.2-1.1,0.2c-0.5,0.1-1.1,0.2-1.9,0.3c-0.8,0.2-1.6,0.3-2.6,0.4c-0.9,0.1-1.9,0.2-2.7,0.2
		c-0.9,0.1-1.7,0.1-2.5,0.1c-0.6,0-1.3-0.1-2.2-0.2c-0.9-0.1-1.7-0.2-2.6-0.3c-0.9-0.1-1.7-0.3-2.4-0.4c-0.7-0.1-1.2-0.3-1.5-0.4
		c0,0-0.1,0-0.4-0.1c-0.3-0.1-0.7-0.3-1.1-0.4c-0.5-0.2-0.9-0.4-1.4-0.6c-0.5-0.2-0.9-0.4-1.3-0.5c-0.5-0.2-1.1-0.6-1.6-1
		c-0.5-0.4-1-0.8-1.3-1.3C11.3,26.1,11.1,25.7,11.1,25.4z"/>
</g>
</svg>
